<svg width="41" height="41" viewBox="0 0 41 41" fill="none" xmlns="http://www.w3.org/2000/svg">
<path d="M21.1518 3.11724C20.9866 3.04034 20.8065 3.00049 20.6243 3.00049C20.4421 3.00049 20.262 3.04034 20.0968 3.11724L1.34679 11.8672C1.126 11.9703 0.94014 12.1356 0.812072 12.3429C0.684004 12.5502 0.619312 12.7904 0.625953 13.034C0.632593 13.2776 0.710276 13.5139 0.849448 13.7139C0.988621 13.9139 1.18321 14.0689 1.40929 14.1597L20.1593 21.6597C20.4578 21.7794 20.7908 21.7794 21.0893 21.6597L35.6243 15.8497V30.4997C34.9613 30.4997 34.3254 30.7631 33.8565 31.232C33.3877 31.7008 33.1243 32.3367 33.1243 32.9997V37.9997H40.6243V32.9997C40.6243 32.3367 40.3609 31.7008 39.8921 31.232C39.4232 30.7631 38.7873 30.4997 38.1243 30.4997V14.8472L39.8393 14.1597C40.0654 14.0689 40.26 13.9139 40.3991 13.7139C40.5383 13.5139 40.616 13.2776 40.6226 13.034C40.6293 12.7904 40.5646 12.5502 40.4365 12.3429C40.3084 12.1356 40.1226 11.9703 39.9018 11.8672L21.1518 3.11724ZM20.6243 19.1497L5.01929 12.9122L20.6243 5.62974L36.2293 12.9122L20.6243 19.1497Z" fill="#1C1C1C"/>
<path d="M11.0643 20.5797C10.9033 20.5191 10.7316 20.4923 10.5598 20.5011C10.388 20.5099 10.2199 20.554 10.066 20.6308C9.91205 20.7075 9.7756 20.8152 9.66519 20.9471C9.55477 21.079 9.47276 21.2322 9.42429 21.3972L8.17429 25.6472C8.08674 25.9456 8.11353 26.2659 8.24943 26.5456C8.38534 26.8252 8.62061 27.0442 8.90929 27.1597L20.1593 31.6597C20.4578 31.7794 20.7908 31.7794 21.0893 31.6597L32.3393 27.1597C32.628 27.0442 32.8632 26.8252 32.9992 26.5456C33.1351 26.2659 33.1618 25.9456 33.0743 25.6472L31.8243 21.3972C31.7758 21.2322 31.6938 21.079 31.5834 20.9471C31.473 20.8152 31.3365 20.7075 31.1826 20.6308C31.0287 20.554 30.8606 20.5099 30.6888 20.5011C30.517 20.4923 30.3453 20.5191 30.1843 20.5797L20.6243 24.1647L11.0643 20.5797ZM10.8943 25.2622L11.4443 23.3922L20.1843 26.6697C20.4679 26.7764 20.7807 26.7764 21.0643 26.6697L29.8043 23.3922L30.3543 25.2622L20.6243 29.1497L10.8943 25.2622Z" fill="#1C1C1C"/>
</svg>
