<svg width="41" height="41" viewBox="0 0 41 41" fill="none" xmlns="http://www.w3.org/2000/svg">
<path d="M26.5698 4.61749C26.6181 4.46056 26.6349 4.29566 26.6195 4.13221C26.604 3.96875 26.5565 3.80995 26.4796 3.66486C26.4028 3.51977 26.2981 3.39123 26.1716 3.28659C26.0451 3.18195 25.8992 3.10325 25.7423 3.05499C25.5854 3.00673 25.4205 2.98985 25.257 3.00532C25.0936 3.02078 24.9348 3.06829 24.7897 3.14513C24.6446 3.22197 24.516 3.32664 24.4114 3.45316C24.3068 3.57967 24.2281 3.72556 24.1798 3.88249L14.1798 36.3825C14.0823 36.6994 14.1148 37.0421 14.2699 37.3351C14.4251 37.6281 14.6904 37.8475 15.0073 37.945C15.3242 38.0425 15.6669 38.01 15.9599 37.8548C16.2529 37.6997 16.4723 37.4344 16.5698 37.1175L26.5698 4.61749ZM12.5098 10.865C12.6262 10.9811 12.7186 11.119 12.7816 11.2709C12.8446 11.4228 12.877 11.5856 12.877 11.75C12.877 11.9144 12.8446 12.0772 12.7816 12.2291C12.7186 12.3809 12.6262 12.5189 12.5098 12.635L4.64229 20.5L12.5098 28.365C12.7445 28.5997 12.8764 28.9181 12.8764 29.25C12.8764 29.5819 12.7445 29.9003 12.5098 30.135C12.2751 30.3697 11.9567 30.5016 11.6248 30.5016C11.2929 30.5016 10.9745 30.3697 10.7398 30.135L1.98979 21.385C1.87338 21.2689 1.78103 21.1309 1.71801 20.9791C1.655 20.8272 1.62256 20.6644 1.62256 20.5C1.62256 20.3356 1.655 20.1728 1.71801 20.0209C1.78103 19.869 1.87338 19.7311 1.98979 19.615L10.7398 10.865C10.8559 10.7486 10.9938 10.6562 11.1457 10.5932C11.2976 10.5302 11.4604 10.4978 11.6248 10.4978C11.7892 10.4978 11.952 10.5302 12.1039 10.5932C12.2557 10.6562 12.3937 10.7486 12.5098 10.865ZM28.2398 10.865C28.1234 10.9811 28.031 11.119 27.968 11.2709C27.905 11.4228 27.8726 11.5856 27.8726 11.75C27.8726 11.9144 27.905 12.0772 27.968 12.2291C28.031 12.3809 28.1234 12.5189 28.2398 12.635L36.1073 20.5L28.2398 28.365C28.1236 28.4812 28.0314 28.6192 27.9685 28.771C27.9056 28.9229 27.8732 29.0856 27.8732 29.25C27.8732 29.4143 27.9056 29.5771 27.9685 29.7289C28.0314 29.8808 28.1236 30.0188 28.2398 30.135C28.356 30.2512 28.494 30.3434 28.6458 30.4063C28.7977 30.4692 28.9604 30.5016 29.1248 30.5016C29.2892 30.5016 29.4519 30.4692 29.6038 30.4063C29.7556 30.3434 29.8936 30.2512 30.0098 30.135L38.7598 21.385C38.8762 21.2689 38.9686 21.1309 39.0316 20.9791C39.0946 20.8272 39.127 20.6644 39.127 20.5C39.127 20.3356 39.0946 20.1728 39.0316 20.0209C38.9686 19.869 38.8762 19.7311 38.7598 19.615L30.0098 10.865C29.8937 10.7486 29.7557 10.6562 29.6039 10.5932C29.452 10.5302 29.2892 10.4978 29.1248 10.4978C28.9604 10.4978 28.7976 10.5302 28.6457 10.5932C28.4938 10.6562 28.3559 10.7486 28.2398 10.865Z" fill="#1C1C1C"/>
</svg>
