<svg width="41" height="41" viewBox="0 0 41 41" fill="none" xmlns="http://www.w3.org/2000/svg">
<path d="M21.76 3.36504C21.6439 3.24863 21.5059 3.15627 21.3541 3.09326C21.2022 3.03024 21.0394 2.9978 20.875 2.9978C20.7106 2.9978 20.5478 3.03024 20.3959 3.09326C20.2441 3.15627 20.1061 3.24863 19.99 3.36504L4.99 18.365C4.874 18.4813 4.78205 18.6194 4.71942 18.7712C4.65679 18.9231 4.62471 19.0858 4.625 19.25V36.75C4.625 37.0816 4.7567 37.3995 4.99112 37.6339C5.22554 37.8683 5.54348 38 5.875 38H17.125C17.4565 38 17.7745 37.8683 18.0089 37.6339C18.2433 37.3995 18.375 37.0816 18.375 36.75V26.75H23.375V36.75C23.375 37.0816 23.5067 37.3995 23.7411 37.6339C23.9755 37.8683 24.2935 38 24.625 38H35.875C36.2065 38 36.5245 37.8683 36.7589 37.6339C36.9933 37.3995 37.125 37.0816 37.125 36.75V19.25C37.1253 19.0858 37.0932 18.9231 37.0306 18.7712C36.968 18.6194 36.876 18.4813 36.76 18.365L33.375 14.9825V6.75004C33.375 6.41852 33.2433 6.10057 33.0089 5.86615C32.7745 5.63173 32.4565 5.50004 32.125 5.50004H29.625C29.2935 5.50004 28.9755 5.63173 28.7411 5.86615C28.5067 6.10057 28.375 6.41852 28.375 6.75004V9.98254L21.76 3.36504ZM7.125 35.5V19.7675L20.875 6.01754L34.625 19.7675V35.5H25.875V25.5C25.875 25.1685 25.7433 24.8506 25.5089 24.6162C25.2745 24.3817 24.9565 24.25 24.625 24.25H17.125C16.7935 24.25 16.4755 24.3817 16.2411 24.6162C16.0067 24.8506 15.875 25.1685 15.875 25.5V35.5H7.125Z" fill="#1C1C1C"/>
</svg>
