<svg width="41" height="41" viewBox="0 0 41 41" fill="none" xmlns="http://www.w3.org/2000/svg">
<path d="M0.125 10.5C0.125 9.17392 0.651784 7.90215 1.58947 6.96447C2.52715 6.02678 3.79892 5.5 5.125 5.5H35.125C36.4511 5.5 37.7229 6.02678 38.6605 6.96447C39.5982 7.90215 40.125 9.17392 40.125 10.5V30.5C40.125 31.8261 39.5982 33.0979 38.6605 34.0355C37.7229 34.9732 36.4511 35.5 35.125 35.5H5.125C3.79892 35.5 2.52715 34.9732 1.58947 34.0355C0.651784 33.0979 0.125 31.8261 0.125 30.5V10.5ZM5.125 8C4.46196 8 3.82607 8.26339 3.35723 8.73223C2.88839 9.20107 2.625 9.83696 2.625 10.5V11.0425L20.125 21.5425L37.625 11.0425V10.5C37.625 9.83696 37.3616 9.20107 36.8928 8.73223C36.4239 8.26339 35.788 8 35.125 8H5.125ZM37.625 13.9575L25.855 21.02L37.625 28.2625V13.9575ZM37.54 31.1475L23.44 22.47L20.125 24.4575L16.81 22.47L2.71 31.145C2.85206 31.677 3.16579 32.1472 3.60247 32.4826C4.03916 32.8181 4.57436 32.9999 5.125 33H35.125C35.6753 33.0001 36.2103 32.8186 36.6469 32.4836C37.0835 32.1487 37.3975 31.679 37.54 31.1475ZM2.625 28.2625L14.395 21.02L2.625 13.9575V28.2625Z" fill="#1C1C1C"/>
</svg>
