<svg width="41" height="35" viewBox="0 0 41 35" fill="none" xmlns="http://www.w3.org/2000/svg">
<path d="M21.0269 0.116758C20.8617 0.0398498 20.6817 0 20.4994 0C20.3172 0 20.1371 0.0398498 19.9719 0.116758L1.22133 8.86702C1.00053 8.97008 0.814661 9.13543 0.68659 9.34272C0.558518 9.55002 0.493824 9.79023 0.500464 10.0338C0.507105 10.2774 0.584791 10.5137 0.723967 10.7137C0.863143 10.9137 1.05774 11.0687 1.28383 11.1596L20.0344 18.6598C20.3329 18.7794 20.6659 18.7794 20.9644 18.6598L35.4999 12.8496V27.5001C34.8368 27.5001 34.2009 27.7635 33.732 28.2323C33.2632 28.7012 32.9998 29.3371 32.9998 30.0002V35.0003H40.5V30.0002C40.5 29.3371 40.2366 28.7012 39.7677 28.2323C39.2989 27.7635 38.663 27.5001 37.9999 27.5001V11.8471L39.715 11.1596C39.9411 11.0687 40.1357 10.9137 40.2748 10.7137C40.414 10.5137 40.4917 10.2774 40.4983 10.0338C40.505 9.79023 40.4403 9.55002 40.3122 9.34272C40.1841 9.13543 39.9983 8.97008 39.7775 8.86702L21.0269 0.116758ZM20.4994 16.1497L4.89394 9.91205L20.4994 2.62933L36.1049 9.91205L20.4994 16.1497Z" fill="#1C1C1C"/>
<path d="M10.9392 17.5798C10.7782 17.5192 10.6065 17.4924 10.4347 17.5012C10.2629 17.51 10.0948 17.5541 9.94086 17.6308C9.78692 17.7076 9.65047 17.8152 9.54005 17.9471C9.42964 18.079 9.34763 18.2323 9.29915 18.3973L8.04912 22.6474C7.96156 22.9458 7.98835 23.2661 8.12426 23.5458C8.26017 23.8255 8.49544 24.0445 8.78414 24.16L20.0345 28.6601C20.3329 28.7797 20.666 28.7797 20.9645 28.6601L32.2148 24.16C32.5035 24.0445 32.7388 23.8255 32.8747 23.5458C33.0106 23.2661 33.0374 22.9458 32.9499 22.6474L31.6998 18.3973C31.6513 18.2323 31.5693 18.079 31.4589 17.9471C31.3485 17.8152 31.2121 17.7076 31.0581 17.6308C30.9042 17.5541 30.7361 17.51 30.5643 17.5012C30.3925 17.4924 30.2207 17.5192 30.0598 17.5798L20.4995 21.1649L10.9392 17.5798ZM10.7692 22.2624L11.3192 20.3924L20.0595 23.67C20.3431 23.7766 20.6559 23.7766 20.9395 23.67L29.6798 20.3924L30.2298 22.2624L20.4995 26.15L10.7692 22.2624Z" fill="#1C1C1C"/>
</svg>
