<svg width="32" height="32" viewBox="0 0 32 32" fill="none" xmlns="http://www.w3.org/2000/svg">
<g clip-path="url(#clip0_85_222)">
<path d="M12 0.555989C12.1947 0.793462 12.314 1.08373 12.3425 1.38951C12.371 1.69529 12.3075 2.00261 12.16 2.27199C11.0031 4.39469 10.3992 6.77449 10.404 9.19199C10.404 17.234 16.96 23.746 25.04 23.746C26.096 23.7447 27.118 23.638 28.106 23.426C28.4082 23.3613 28.7228 23.3867 29.0108 23.4991C29.2987 23.6114 29.5474 23.8057 29.726 24.058C29.915 24.3205 30.0114 24.6383 30.0002 24.9616C29.989 25.2848 29.8707 25.5952 29.664 25.844C28.0953 27.7708 26.1164 29.3232 23.8716 30.3882C21.6268 31.4531 19.1726 32.0038 16.688 32C7.468 32 0 24.572 0 15.42C0 8.53199 4.228 2.62399 10.248 0.119989C10.5478 -0.00741111 10.8809 -0.0337737 11.1969 0.0448851C11.513 0.123544 11.7949 0.302949 12 0.555989ZM9.716 2.62199C7.40135 3.86382 5.46633 5.70948 4.11655 7.96288C2.76676 10.2163 2.05262 12.7933 2.05 15.42C2.05 23.46 8.608 29.972 16.688 29.972C18.6228 29.9749 20.539 29.5943 22.3258 28.8521C24.1127 28.1099 25.7346 27.0209 27.098 25.648C26.4233 25.732 25.7373 25.774 25.04 25.774C15.82 25.774 8.354 18.346 8.354 9.19399C8.354 6.85999 8.838 4.63799 9.716 2.62199Z" fill="#1C1C1C"/>
<path d="M21.5881 6.296C21.6168 6.20938 21.672 6.13401 21.746 6.08059C21.82 6.02717 21.9089 5.99842 22.0001 5.99842C22.0913 5.99842 22.1803 6.02717 22.2542 6.08059C22.3282 6.13401 22.3834 6.20938 22.4121 6.296L23.1861 8.62C23.5321 9.656 24.3441 10.468 25.3801 10.814L27.7041 11.588C27.7907 11.6167 27.8661 11.6719 27.9195 11.7459C27.9729 11.8198 28.0017 11.9088 28.0017 12C28.0017 12.0912 27.9729 12.1801 27.9195 12.2541C27.8661 12.3281 27.7907 12.3833 27.7041 12.412L25.3801 13.186C24.8689 13.3557 24.4043 13.6424 24.0234 14.0233C23.6425 14.4042 23.3558 14.8687 23.1861 15.38L22.4121 17.704C22.3834 17.7906 22.3282 17.866 22.2542 17.9194C22.1803 17.9728 22.0913 18.0016 22.0001 18.0016C21.9089 18.0016 21.82 17.9728 21.746 17.9194C21.672 17.866 21.6168 17.7906 21.5881 17.704L20.8141 15.38C20.6444 14.8687 20.3577 14.4042 19.9768 14.0233C19.5959 13.6424 19.1314 13.3557 18.6201 13.186L16.2961 12.412C16.2095 12.3833 16.1341 12.3281 16.0807 12.2541C16.0273 12.1801 15.9985 12.0912 15.9985 12C15.9985 11.9088 16.0273 11.8198 16.0807 11.7459C16.1341 11.6719 16.2095 11.6167 16.2961 11.588L18.6201 10.814C19.1314 10.6443 19.5959 10.3576 19.9768 9.97672C20.3577 9.59582 20.6444 9.13125 20.8141 8.62L21.5881 6.296ZM27.7261 0.197996C27.7459 0.141049 27.7829 0.0916678 27.832 0.0567192C27.8811 0.0217705 27.9398 0.00299072 28.0001 0.00299072C28.0604 0.00299072 28.1192 0.0217705 28.1683 0.0567192C28.2174 0.0916678 28.2544 0.141049 28.2741 0.197996L28.7901 1.746C29.0201 2.438 29.5621 2.98 30.2541 3.21L31.8021 3.726C31.8591 3.74574 31.9084 3.78274 31.9434 3.83184C31.9783 3.88095 31.9971 3.93972 31.9971 4C31.9971 4.06027 31.9783 4.11904 31.9434 4.16815C31.9084 4.21726 31.8591 4.25425 31.8021 4.274L30.2541 4.79C29.9134 4.904 29.6038 5.09557 29.3497 5.34963C29.0957 5.60368 28.9041 5.91327 28.7901 6.254L28.2741 7.802C28.2544 7.85894 28.2174 7.90832 28.1683 7.94327C28.1192 7.97822 28.0604 7.997 28.0001 7.997C27.9398 7.997 27.8811 7.97822 27.832 7.94327C27.7829 7.90832 27.7459 7.85894 27.7261 7.802L27.2101 6.254C27.0961 5.91327 26.9045 5.60368 26.6505 5.34963C26.3964 5.09557 26.0868 4.904 25.7461 4.79L24.1981 4.274C24.1412 4.25425 24.0918 4.21726 24.0568 4.16815C24.0219 4.11904 24.0031 4.06027 24.0031 4C24.0031 3.93972 24.0219 3.88095 24.0568 3.83184C24.0918 3.78274 24.1412 3.74574 24.1981 3.726L25.7461 3.21C26.4381 2.98 26.9801 2.438 27.2101 1.746L27.7261 0.197996Z" fill="#1C1C1C"/>
</g>
<defs>
<clipPath id="clip0_85_222">
<rect width="32" height="32" fill="white"/>
</clipPath>
</defs>
</svg>
